<svg xmlns="http://www.w3.org/2000/svg" xmlns:xlink="http://www.w3.org/1999/xlink" width="500" zoomAndPan="magnify" viewBox="0 0 375 374.999991" height="500" preserveAspectRatio="xMidYMid meet" version="1.0"><defs><clipPath id="id1"><path d="M 263 137 L 337.160156 137 L 337.160156 326 L 263 326 Z M 263 137 " clip-rule="nonzero"/></clipPath><clipPath id="id2"><path d="M 33.410156 48 L 89 48 L 89 109 L 33.410156 109 Z M 33.410156 48 " clip-rule="nonzero"/></clipPath></defs><path fill="rgb(88.62915%, 88.62915%, 88.62915%)" d="M 234.007812 374.75 L 97.421875 374.75 C 77.238281 374.75 60.929688 358.421875 60.929688 338.21875 L 60.929688 71.476562 L 270.496094 71.476562 L 270.496094 338.21875 C 270.496094 358.421875 254.1875 374.75 234.007812 374.75 Z M 234.007812 374.75 " fill-opacity="1" fill-rule="nonzero"/><path fill="rgb(100%, 69.799805%, 39.99939%)" d="M 225.035156 358.21875 L 106.1875 358.21875 C 91.507812 358.21875 79.683594 343.523438 79.683594 325.359375 L 79.683594 93.519531 L 251.539062 93.519531 L 251.539062 325.359375 C 251.539062 343.523438 239.714844 358.21875 225.035156 358.21875 Z M 225.035156 358.21875 " fill-opacity="1" fill-rule="nonzero"/><g clip-path="url(#id1)"><path fill="rgb(88.62915%, 88.62915%, 88.62915%)" d="M 306.375 137.398438 L 263.769531 137.398438 L 263.769531 170.050781 L 290.882812 170.050781 C 301.28125 170.050781 308.617188 182.296875 308.617188 192.703125 L 308.617188 271.6875 C 308.617188 282.09375 301.28125 292.503906 290.882812 292.503906 L 263.769531 292.503906 L 263.769531 325.15625 L 306.375 325.15625 C 323.5 325.15625 337.160156 309.851562 337.160156 292.707031 L 337.160156 171.683594 C 337.160156 154.539062 323.5 137.398438 306.375 137.398438 Z M 306.375 137.398438 " fill-opacity="1" fill-rule="nonzero"/></g><path fill="rgb(95.689392%, 95.689392%, 95.689392%)" d="M 143.289062 89.84375 L 82.132812 89.84375 C 68.269531 89.84375 56.851562 78.414062 56.851562 64.539062 L 56.851562 56.984375 C 56.851562 32.085938 76.832031 12.085938 101.703125 12.085938 C 126.574219 12.085938 146.550781 32.085938 146.550781 56.984375 L 146.550781 86.578125 C 146.753906 88.414062 145.125 89.84375 143.289062 89.84375 Z M 143.289062 89.84375 " fill-opacity="1" fill-rule="nonzero"/><path fill="rgb(95.689392%, 95.689392%, 95.689392%)" d="M 181.820312 101.886719 L 142.675781 101.886719 C 128.816406 101.886719 117.398438 90.457031 117.398438 76.578125 L 117.398438 45.148438 C 117.398438 20.25 137.378906 0.25 162.246094 0.25 C 187.117188 0.25 207.097656 20.25 207.097656 45.148438 L 207.097656 76.578125 C 207.097656 90.457031 195.679688 101.886719 181.820312 101.886719 Z M 181.820312 101.886719 " fill-opacity="1" fill-rule="nonzero"/><path fill="rgb(95.689392%, 95.689392%, 95.689392%)" d="M 252.761719 93.925781 L 213.621094 93.925781 C 199.757812 93.925781 188.34375 82.496094 188.34375 68.621094 L 188.34375 61.066406 C 188.34375 36.167969 208.320312 16.167969 233.191406 16.167969 C 258.0625 16.167969 278.039062 36.167969 278.039062 61.066406 L 278.039062 68.621094 C 278.039062 82.496094 266.625 93.925781 252.761719 93.925781 Z M 252.761719 93.925781 " fill-opacity="1" fill-rule="nonzero"/><path fill="rgb(95.689392%, 95.689392%, 95.689392%)" d="M 285.175781 42.699219 C 270.292969 42.699219 258.265625 54.742188 258.265625 69.4375 L 258.265625 98.007812 C 258.265625 100.046875 259.898438 101.886719 262.140625 101.886719 L 284.972656 101.886719 C 300.667969 101.886719 313.308594 89.027344 313.308594 73.515625 L 313.308594 71.066406 C 313.308594 55.355469 300.667969 42.699219 285.175781 42.699219 Z M 285.175781 42.699219 " fill-opacity="1" fill-rule="nonzero"/><path fill="rgb(95.689392%, 95.689392%, 95.689392%)" d="M 283.746094 98.414062 C 283.746094 83.519531 271.71875 71.476562 257.042969 71.476562 L 228.503906 71.476562 C 226.464844 71.476562 224.628906 73.109375 224.628906 75.355469 L 224.628906 98.210938 C 224.628906 113.925781 237.472656 126.578125 252.964844 126.578125 L 255.410156 126.578125 C 271.109375 126.578125 283.746094 113.925781 283.746094 98.414062 Z M 283.746094 98.414062 " fill-opacity="1" fill-rule="nonzero"/><g clip-path="url(#id2)"><path fill="rgb(95.689392%, 95.689392%, 95.689392%)" d="M 61.542969 108.210938 C 76.421875 108.210938 88.449219 96.171875 88.449219 81.273438 L 88.449219 52.699219 C 88.449219 50.660156 86.820312 48.824219 84.578125 48.824219 L 61.746094 48.824219 C 46.253906 49.027344 33.410156 61.679688 33.410156 77.394531 L 33.410156 79.84375 C 33.410156 95.355469 46.046875 108.210938 61.542969 108.210938 Z M 61.542969 108.210938 " fill-opacity="1" fill-rule="nonzero"/></g><path fill="rgb(95.689392%, 95.689392%, 95.689392%)" d="M 193.847656 108.621094 L 194.253906 108.210938 C 201.183594 101.273438 201.183594 89.84375 194.253906 82.90625 L 157.355469 45.761719 C 154.09375 42.496094 148.792969 42.496094 145.328125 45.761719 L 110.265625 81.070312 C 102.722656 88.621094 102.722656 101.070312 110.265625 108.621094 C 133.300781 131.683594 170.808594 131.683594 193.847656 108.621094 Z M 193.847656 108.621094 " fill-opacity="1" fill-rule="nonzero"/><path fill="rgb(95.689392%, 95.689392%, 95.689392%)" d="M 59.910156 67.804688 L 95.992188 67.804688 C 104.964844 67.804688 112.300781 75.148438 112.300781 84.128906 L 112.300781 96.785156 C 112.300781 112.089844 99.867188 124.335938 84.78125 124.335938 C 69.492188 124.335938 57.261719 111.886719 57.261719 96.785156 L 57.261719 70.660156 C 56.851562 69.027344 58.28125 67.804688 59.910156 67.804688 Z M 59.910156 67.804688 " fill-opacity="1" fill-rule="nonzero"/><path fill="rgb(92.158508%, 61.959839%, 34.899902%)" d="M 116.378906 334.136719 C 109.855469 334.136719 104.554688 328.832031 104.554688 322.300781 L 104.554688 155.558594 C 104.554688 149.03125 109.855469 143.722656 116.378906 143.722656 C 122.902344 143.722656 128.203125 149.03125 128.203125 155.558594 L 128.203125 322.300781 C 128.203125 328.832031 122.902344 334.136719 116.378906 334.136719 Z M 116.378906 334.136719 " fill-opacity="1" fill-rule="nonzero"/><path fill="rgb(92.158508%, 61.959839%, 34.899902%)" d="M 165.101562 334.136719 C 158.578125 334.136719 153.277344 328.832031 153.277344 322.300781 L 153.277344 155.558594 C 153.277344 149.03125 158.578125 143.722656 165.101562 143.722656 C 171.625 143.722656 176.925781 149.03125 176.925781 155.558594 L 176.925781 322.300781 C 176.722656 328.832031 171.421875 334.136719 165.101562 334.136719 Z M 165.101562 334.136719 " fill-opacity="1" fill-rule="nonzero"/><path fill="rgb(92.158508%, 61.959839%, 34.899902%)" d="M 213.621094 334.136719 C 207.097656 334.136719 201.796875 328.832031 201.796875 322.300781 L 201.796875 155.558594 C 201.796875 149.03125 207.097656 143.722656 213.621094 143.722656 C 220.144531 143.722656 225.445312 149.03125 225.445312 155.558594 L 225.445312 322.300781 C 225.445312 328.832031 220.144531 334.136719 213.621094 334.136719 Z M 213.621094 334.136719 " fill-opacity="1" fill-rule="nonzero"/><path fill="rgb(95.689392%, 95.689392%, 95.689392%)" d="M 210.359375 179.03125 C 221.980469 179.03125 231.558594 169.4375 231.558594 158.007812 L 231.558594 78.621094 C 231.558594 69.84375 224.425781 62.90625 215.863281 62.90625 L 205.261719 62.90625 C 196.496094 62.90625 189.566406 70.046875 189.566406 78.621094 L 189.566406 157.804688 C 189.359375 169.4375 198.941406 179.03125 210.359375 179.03125 Z M 210.359375 179.03125 " fill-opacity="1" fill-rule="nonzero"/></svg>