<svg xmlns="http://www.w3.org/2000/svg" xmlns:xlink="http://www.w3.org/1999/xlink" width="64" zoomAndPan="magnify" viewBox="0 0 48 48" height="64" preserveAspectRatio="xMidYMid meet" version="1.0"><defs><clipPath id="id1"><path d="M 33 17 L 42.882812 17 L 42.882812 41 L 33 41 Z M 33 17 " clip-rule="nonzero"/></clipPath><clipPath id="id2"><path d="M 4.679688 6 L 12 6 L 12 14 L 4.679688 14 Z M 4.679688 6 " clip-rule="nonzero"/></clipPath></defs><path fill="rgb(88.62915%, 88.62915%, 88.62915%)" d="M 29.910156 46.984375 L 12.730469 46.984375 C 10.191406 46.984375 8.140625 44.9375 8.140625 42.40625 L 8.140625 8.964844 L 34.5 8.964844 L 34.5 42.40625 C 34.5 44.9375 32.449219 46.984375 29.910156 46.984375 Z M 29.910156 46.984375 " fill-opacity="1" fill-rule="nonzero"/><path fill="rgb(100%, 69.799805%, 39.99939%)" d="M 28.78125 44.914062 L 13.832031 44.914062 C 11.988281 44.914062 10.5 43.070312 10.5 40.792969 L 10.5 11.726562 L 32.113281 11.726562 L 32.113281 40.792969 C 32.113281 43.070312 30.625 44.914062 28.78125 44.914062 Z M 28.78125 44.914062 " fill-opacity="1" fill-rule="nonzero"/><g clip-path="url(#id1)"><path fill="rgb(88.62915%, 88.62915%, 88.62915%)" d="M 39.011719 17.230469 L 33.652344 17.230469 L 33.652344 21.324219 L 37.0625 21.324219 C 38.371094 21.324219 39.292969 22.859375 39.292969 24.164062 L 39.292969 34.066406 C 39.292969 35.371094 38.371094 36.675781 37.0625 36.675781 L 33.652344 36.675781 L 33.652344 40.769531 L 39.011719 40.769531 C 41.164062 40.769531 42.882812 38.847656 42.882812 36.699219 L 42.882812 21.527344 C 42.882812 19.378906 41.164062 17.230469 39.011719 17.230469 Z M 39.011719 17.230469 " fill-opacity="1" fill-rule="nonzero"/></g><path fill="rgb(95.689392%, 95.689392%, 95.689392%)" d="M 18.5 11.265625 L 10.808594 11.265625 C 9.0625 11.265625 7.628906 9.835938 7.628906 8.09375 L 7.628906 7.148438 C 7.628906 4.027344 10.140625 1.519531 13.269531 1.519531 C 16.398438 1.519531 18.910156 4.027344 18.910156 7.148438 L 18.910156 10.859375 C 18.933594 11.089844 18.730469 11.265625 18.5 11.265625 Z M 18.5 11.265625 " fill-opacity="1" fill-rule="nonzero"/><path fill="rgb(95.689392%, 95.689392%, 95.689392%)" d="M 23.34375 12.777344 L 18.421875 12.777344 C 16.679688 12.777344 15.242188 11.34375 15.242188 9.605469 L 15.242188 5.664062 C 15.242188 2.542969 17.753906 0.0351562 20.882812 0.0351562 C 24.011719 0.0351562 26.523438 2.542969 26.523438 5.664062 L 26.523438 9.605469 C 26.523438 11.34375 25.089844 12.777344 23.34375 12.777344 Z M 23.34375 12.777344 " fill-opacity="1" fill-rule="nonzero"/><path fill="rgb(95.689392%, 95.689392%, 95.689392%)" d="M 32.269531 11.777344 L 27.34375 11.777344 C 25.601562 11.777344 24.164062 10.347656 24.164062 8.605469 L 24.164062 7.660156 C 24.164062 4.539062 26.679688 2.03125 29.804688 2.03125 C 32.933594 2.03125 35.449219 4.539062 35.449219 7.660156 L 35.449219 8.605469 C 35.449219 10.347656 34.011719 11.777344 32.269531 11.777344 Z M 32.269531 11.777344 " fill-opacity="1" fill-rule="nonzero"/><path fill="rgb(95.689392%, 95.689392%, 95.689392%)" d="M 36.34375 5.355469 C 34.472656 5.355469 32.960938 6.867188 32.960938 8.707031 L 32.960938 12.289062 C 32.960938 12.546875 33.164062 12.777344 33.449219 12.777344 L 36.320312 12.777344 C 38.292969 12.777344 39.882812 11.164062 39.882812 9.21875 L 39.882812 8.914062 C 39.882812 6.941406 38.292969 5.355469 36.34375 5.355469 Z M 36.34375 5.355469 " fill-opacity="1" fill-rule="nonzero"/><path fill="rgb(95.689392%, 95.689392%, 95.689392%)" d="M 36.164062 12.339844 C 36.164062 10.472656 34.652344 8.964844 32.804688 8.964844 L 29.214844 8.964844 C 28.960938 8.964844 28.730469 9.167969 28.730469 9.449219 L 28.730469 12.316406 C 28.730469 14.285156 30.34375 15.871094 32.292969 15.871094 L 32.601562 15.871094 C 34.574219 15.871094 36.164062 14.285156 36.164062 12.339844 Z M 36.164062 12.339844 " fill-opacity="1" fill-rule="nonzero"/><g clip-path="url(#id2)"><path fill="rgb(95.689392%, 95.689392%, 95.689392%)" d="M 8.21875 13.570312 C 10.089844 13.570312 11.601562 12.058594 11.601562 10.191406 L 11.601562 6.609375 C 11.601562 6.355469 11.398438 6.125 11.113281 6.125 L 8.242188 6.125 C 6.292969 6.148438 4.679688 7.734375 4.679688 9.707031 L 4.679688 10.011719 C 4.679688 11.957031 6.269531 13.570312 8.21875 13.570312 Z M 8.21875 13.570312 " fill-opacity="1" fill-rule="nonzero"/></g><path fill="rgb(95.689392%, 95.689392%, 95.689392%)" d="M 24.859375 13.621094 L 24.910156 13.570312 C 25.78125 12.699219 25.78125 11.265625 24.910156 10.398438 L 20.269531 5.742188 C 19.859375 5.332031 19.191406 5.332031 18.753906 5.742188 L 14.34375 10.167969 C 13.398438 11.113281 13.398438 12.675781 14.34375 13.621094 C 17.242188 16.511719 21.960938 16.511719 24.859375 13.621094 Z M 24.859375 13.621094 " fill-opacity="1" fill-rule="nonzero"/><path fill="rgb(95.689392%, 95.689392%, 95.689392%)" d="M 8.011719 8.503906 L 12.550781 8.503906 C 13.679688 8.503906 14.601562 9.425781 14.601562 10.550781 L 14.601562 12.136719 C 14.601562 14.054688 13.039062 15.589844 11.140625 15.589844 C 9.21875 15.589844 7.679688 14.03125 7.679688 12.136719 L 7.679688 8.863281 C 7.628906 8.65625 7.808594 8.503906 8.011719 8.503906 Z M 8.011719 8.503906 " fill-opacity="1" fill-rule="nonzero"/><path fill="rgb(92.158508%, 61.959839%, 34.899902%)" d="M 15.113281 41.894531 C 14.292969 41.894531 13.628906 41.230469 13.628906 40.410156 L 13.628906 19.507812 C 13.628906 18.6875 14.292969 18.023438 15.113281 18.023438 C 15.933594 18.023438 16.601562 18.6875 16.601562 19.507812 L 16.601562 40.410156 C 16.601562 41.230469 15.933594 41.894531 15.113281 41.894531 Z M 15.113281 41.894531 " fill-opacity="1" fill-rule="nonzero"/><path fill="rgb(92.158508%, 61.959839%, 34.899902%)" d="M 21.242188 41.894531 C 20.421875 41.894531 19.753906 41.230469 19.753906 40.410156 L 19.753906 19.507812 C 19.753906 18.6875 20.421875 18.023438 21.242188 18.023438 C 22.0625 18.023438 22.730469 18.6875 22.730469 19.507812 L 22.730469 40.410156 C 22.703125 41.230469 22.039062 41.894531 21.242188 41.894531 Z M 21.242188 41.894531 " fill-opacity="1" fill-rule="nonzero"/><path fill="rgb(92.158508%, 61.959839%, 34.899902%)" d="M 27.34375 41.894531 C 26.523438 41.894531 25.859375 41.230469 25.859375 40.410156 L 25.859375 19.507812 C 25.859375 18.6875 26.523438 18.023438 27.34375 18.023438 C 28.164062 18.023438 28.832031 18.6875 28.832031 19.507812 L 28.832031 40.410156 C 28.832031 41.230469 28.164062 41.894531 27.34375 41.894531 Z M 27.34375 41.894531 " fill-opacity="1" fill-rule="nonzero"/><path fill="rgb(95.689392%, 95.689392%, 95.689392%)" d="M 26.933594 22.449219 C 28.394531 22.449219 29.601562 21.246094 29.601562 19.8125 L 29.601562 9.859375 C 29.601562 8.757812 28.703125 7.890625 27.628906 7.890625 L 26.292969 7.890625 C 25.191406 7.890625 24.320312 8.785156 24.320312 9.859375 L 24.320312 19.789062 C 24.292969 21.246094 25.5 22.449219 26.933594 22.449219 Z M 26.933594 22.449219 " fill-opacity="1" fill-rule="nonzero"/></svg>